<svg class="svg-icon" style="width: 1em; height: 1em;vertical-align: middle;fill: currentColor;overflow: hidden;" viewBox="0 0 1024 1024" version="1.1" xmlns="http://www.w3.org/2000/svg"><path d="M469.333333 640h85.333334v85.333333h-85.333334v-85.333333m0-341.333333h85.333334v256h-85.333334V298.666667m42.666667-213.333334C276.053333 85.333333 85.333333 277.333333 85.333333 512a426.666667 426.666667 0 0 0 426.666667 426.666667 426.666667 426.666667 0 0 0 426.666667-426.666667A426.666667 426.666667 0 0 0 512 85.333333m0 768a341.333333 341.333333 0 0 1-341.333333-341.333333 341.333333 341.333333 0 0 1 341.333333-341.333333 341.333333 341.333333 0 0 1 341.333333 341.333333 341.333333 341.333333 0 0 1-341.333333 341.333333z" fill="" /></svg>